<mxfile host="Electron" modified="2023-09-24T18:59:10.611Z" agent="Mozilla/5.0 (Macintosh; Intel Mac OS X 10_15_7) AppleWebKit/537.36 (KHTML, like Gecko) draw.io/21.6.5 Chrome/114.0.5735.243 Electron/25.3.1 Safari/537.36" etag="Gs46c2Rmz8TUP3jS9R2b" version="21.6.5" type="device" pages="2">
  <diagram name="KINDS" id="in_1sEUQBc4oRiaucIEL">
    <mxGraphModel dx="1434" dy="771" grid="1" gridSize="10" guides="1" tooltips="1" connect="1" arrows="1" fold="1" page="1" pageScale="1" pageWidth="827" pageHeight="1169" math="0" shadow="0">
      <root>
        <mxCell id="0" />
        <mxCell id="1" parent="0" />
        <mxCell id="QwxL4YkRWLd3QCmDV_RN-4" value="" style="edgeStyle=orthogonalEdgeStyle;rounded=0;orthogonalLoop=1;jettySize=auto;html=1;" edge="1" parent="1" source="QwxL4YkRWLd3QCmDV_RN-1" target="QwxL4YkRWLd3QCmDV_RN-3">
          <mxGeometry relative="1" as="geometry" />
        </mxCell>
        <mxCell id="QwxL4YkRWLd3QCmDV_RN-1" value="UNIT TESTING" style="rounded=0;whiteSpace=wrap;html=1;fillColor=#1ba1e2;fontColor=#ffffff;strokeColor=#006EAF;" vertex="1" parent="1">
          <mxGeometry x="100" y="120" width="120" height="60" as="geometry" />
        </mxCell>
        <mxCell id="QwxL4YkRWLd3QCmDV_RN-6" value="" style="edgeStyle=orthogonalEdgeStyle;rounded=0;orthogonalLoop=1;jettySize=auto;html=1;" edge="1" parent="1" source="QwxL4YkRWLd3QCmDV_RN-2" target="QwxL4YkRWLd3QCmDV_RN-5">
          <mxGeometry relative="1" as="geometry" />
        </mxCell>
        <mxCell id="QwxL4YkRWLd3QCmDV_RN-2" value="INTEGRATION&amp;nbsp;&lt;br&gt;TESTING" style="rounded=0;whiteSpace=wrap;html=1;fillColor=#008a00;fontColor=#ffffff;strokeColor=#005700;" vertex="1" parent="1">
          <mxGeometry x="310" y="120" width="120" height="60" as="geometry" />
        </mxCell>
        <mxCell id="QwxL4YkRWLd3QCmDV_RN-8" value="" style="edgeStyle=orthogonalEdgeStyle;rounded=0;orthogonalLoop=1;jettySize=auto;html=1;" edge="1" parent="1" source="QwxL4YkRWLd3QCmDV_RN-3" target="QwxL4YkRWLd3QCmDV_RN-7">
          <mxGeometry relative="1" as="geometry" />
        </mxCell>
        <mxCell id="QwxL4YkRWLd3QCmDV_RN-3" value="TEST INDIVIDUAL&lt;br&gt;COMPONENTS IN ISOLATION" style="rounded=0;whiteSpace=wrap;html=1;fillColor=#1ba1e2;fontColor=#ffffff;strokeColor=#006EAF;" vertex="1" parent="1">
          <mxGeometry x="100" y="260" width="120" height="60" as="geometry" />
        </mxCell>
        <mxCell id="QwxL4YkRWLd3QCmDV_RN-10" value="" style="edgeStyle=orthogonalEdgeStyle;rounded=0;orthogonalLoop=1;jettySize=auto;html=1;" edge="1" parent="1" source="QwxL4YkRWLd3QCmDV_RN-5" target="QwxL4YkRWLd3QCmDV_RN-9">
          <mxGeometry relative="1" as="geometry" />
        </mxCell>
        <mxCell id="QwxL4YkRWLd3QCmDV_RN-5" value="VERIFIES INTERACTION BETWEEN DIFFERENT COMPONENTS" style="rounded=0;whiteSpace=wrap;html=1;fillColor=#008a00;fontColor=#ffffff;strokeColor=#005700;" vertex="1" parent="1">
          <mxGeometry x="275" y="260" width="190" height="60" as="geometry" />
        </mxCell>
        <mxCell id="QwxL4YkRWLd3QCmDV_RN-12" value="" style="edgeStyle=orthogonalEdgeStyle;rounded=0;orthogonalLoop=1;jettySize=auto;html=1;" edge="1" parent="1" source="QwxL4YkRWLd3QCmDV_RN-7" target="QwxL4YkRWLd3QCmDV_RN-11">
          <mxGeometry relative="1" as="geometry" />
        </mxCell>
        <mxCell id="QwxL4YkRWLd3QCmDV_RN-7" value="AT METHOD OR CLASS LEVEL" style="rounded=0;whiteSpace=wrap;html=1;fillColor=#1ba1e2;fontColor=#ffffff;strokeColor=#006EAF;" vertex="1" parent="1">
          <mxGeometry x="100" y="400" width="120" height="60" as="geometry" />
        </mxCell>
        <mxCell id="QwxL4YkRWLd3QCmDV_RN-9" value="ENSURES THE INTEGRATED PARTS WORK TOGETHER" style="rounded=0;whiteSpace=wrap;html=1;fillColor=#008a00;fontColor=#ffffff;strokeColor=#005700;" vertex="1" parent="1">
          <mxGeometry x="275" y="400" width="190" height="60" as="geometry" />
        </mxCell>
        <mxCell id="QwxL4YkRWLd3QCmDV_RN-11" value="MOCK OBJECTS ARE USED TO ISOLATE THE UNIT FROM EXTERNAL DEPENDENCIES" style="rounded=0;whiteSpace=wrap;html=1;fillColor=#1ba1e2;fontColor=#ffffff;strokeColor=#006EAF;" vertex="1" parent="1">
          <mxGeometry x="70" y="540" width="180" height="60" as="geometry" />
        </mxCell>
      </root>
    </mxGraphModel>
  </diagram>
  <diagram id="jVKJ0oBJJIVDnFvyrW2L" name="TDD">
    <mxGraphModel dx="1434" dy="771" grid="1" gridSize="10" guides="1" tooltips="1" connect="1" arrows="1" fold="1" page="1" pageScale="1" pageWidth="827" pageHeight="1169" math="0" shadow="0">
      <root>
        <mxCell id="0" />
        <mxCell id="1" parent="0" />
        <mxCell id="4lNVNQyGQVYyvvqS3Nd8-3" value="" style="edgeStyle=orthogonalEdgeStyle;rounded=0;orthogonalLoop=1;jettySize=auto;html=1;" edge="1" parent="1" source="4lNVNQyGQVYyvvqS3Nd8-1" target="4lNVNQyGQVYyvvqS3Nd8-2">
          <mxGeometry relative="1" as="geometry" />
        </mxCell>
        <mxCell id="4lNVNQyGQVYyvvqS3Nd8-1" value="TDD" style="rounded=0;whiteSpace=wrap;html=1;fillColor=#60a917;strokeColor=#2D7600;fontColor=#ffffff;" vertex="1" parent="1">
          <mxGeometry x="200" y="120" width="120" height="60" as="geometry" />
        </mxCell>
        <mxCell id="4lNVNQyGQVYyvvqS3Nd8-5" value="" style="edgeStyle=orthogonalEdgeStyle;rounded=0;orthogonalLoop=1;jettySize=auto;html=1;" edge="1" parent="1" source="4lNVNQyGQVYyvvqS3Nd8-2" target="4lNVNQyGQVYyvvqS3Nd8-4">
          <mxGeometry relative="1" as="geometry" />
        </mxCell>
        <mxCell id="4lNVNQyGQVYyvvqS3Nd8-2" value="TEST-DRIVE DEVELOPMENT" style="rounded=0;whiteSpace=wrap;html=1;fillColor=#60a917;strokeColor=#2D7600;fontColor=#ffffff;" vertex="1" parent="1">
          <mxGeometry x="200" y="210" width="120" height="60" as="geometry" />
        </mxCell>
        <mxCell id="4lNVNQyGQVYyvvqS3Nd8-7" value="" style="edgeStyle=orthogonalEdgeStyle;rounded=0;orthogonalLoop=1;jettySize=auto;html=1;" edge="1" parent="1" source="4lNVNQyGQVYyvvqS3Nd8-4" target="4lNVNQyGQVYyvvqS3Nd8-6">
          <mxGeometry relative="1" as="geometry" />
        </mxCell>
        <mxCell id="4lNVNQyGQVYyvvqS3Nd8-4" value="APPROACH WHERE TEST ARE WRITTEN BEFORE ACTUAL CODE" style="rounded=0;whiteSpace=wrap;html=1;fillColor=#60a917;strokeColor=#2D7600;fontColor=#ffffff;" vertex="1" parent="1">
          <mxGeometry x="175" y="310" width="170" height="60" as="geometry" />
        </mxCell>
        <mxCell id="4lNVNQyGQVYyvvqS3Nd8-9" value="" style="edgeStyle=orthogonalEdgeStyle;rounded=0;orthogonalLoop=1;jettySize=auto;html=1;" edge="1" parent="1" source="4lNVNQyGQVYyvvqS3Nd8-6" target="4lNVNQyGQVYyvvqS3Nd8-8">
          <mxGeometry relative="1" as="geometry" />
        </mxCell>
        <mxCell id="4lNVNQyGQVYyvvqS3Nd8-6" value="WRITE A FAILING TEST DESCRIBING DESIRED FUNCTIONALITY" style="rounded=0;whiteSpace=wrap;html=1;fillColor=#60a917;strokeColor=#2D7600;fontColor=#ffffff;" vertex="1" parent="1">
          <mxGeometry x="425" y="310" width="170" height="60" as="geometry" />
        </mxCell>
        <mxCell id="4lNVNQyGQVYyvvqS3Nd8-11" value="" style="edgeStyle=orthogonalEdgeStyle;rounded=0;orthogonalLoop=1;jettySize=auto;html=1;" edge="1" parent="1" source="4lNVNQyGQVYyvvqS3Nd8-8" target="4lNVNQyGQVYyvvqS3Nd8-10">
          <mxGeometry relative="1" as="geometry" />
        </mxCell>
        <mxCell id="4lNVNQyGQVYyvvqS3Nd8-8" value="WRITE THE MINIMUM CODE NEEDED TO PASS THE TEST" style="rounded=0;whiteSpace=wrap;html=1;fillColor=#60a917;strokeColor=#2D7600;fontColor=#ffffff;" vertex="1" parent="1">
          <mxGeometry x="425" y="400" width="170" height="60" as="geometry" />
        </mxCell>
        <mxCell id="4lNVNQyGQVYyvvqS3Nd8-10" value="REFACTOR THE CODE WHILE ENSURING THE TEST PASSES" style="rounded=0;whiteSpace=wrap;html=1;fillColor=#60a917;strokeColor=#2D7600;fontColor=#ffffff;" vertex="1" parent="1">
          <mxGeometry x="425" y="500" width="170" height="60" as="geometry" />
        </mxCell>
        <mxCell id="4lNVNQyGQVYyvvqS3Nd8-13" value="CODE QUALITY" style="rounded=0;whiteSpace=wrap;html=1;fillColor=#0050ef;fontColor=#ffffff;strokeColor=#001DBC;" vertex="1" parent="1">
          <mxGeometry x="640" y="120" width="120" height="60" as="geometry" />
        </mxCell>
        <mxCell id="4lNVNQyGQVYyvvqS3Nd8-14" value="ENSURES TEST COVERAGE" style="rounded=0;whiteSpace=wrap;html=1;fillColor=#0050ef;fontColor=#ffffff;strokeColor=#001DBC;" vertex="1" parent="1">
          <mxGeometry x="640" y="200" width="120" height="60" as="geometry" />
        </mxCell>
        <mxCell id="4lNVNQyGQVYyvvqS3Nd8-15" value="PROVIDES EARLY FEEDBACK" style="rounded=0;whiteSpace=wrap;html=1;fillColor=#0050ef;fontColor=#ffffff;strokeColor=#001DBC;" vertex="1" parent="1">
          <mxGeometry x="640" y="280" width="120" height="60" as="geometry" />
        </mxCell>
      </root>
    </mxGraphModel>
  </diagram>
</mxfile>
